<svg width="25" height="24" viewBox="0 0 25 24" fill="none" xmlns="http://www.w3.org/2000/svg">
<path d="M24.493 12.2245C24.493 11.2413 24.4114 10.5237 24.2347 9.77963H12.7448V14.2176H19.4891C19.3532 15.3205 18.6189 16.9815 16.9872 18.0976L16.9643 18.2461L20.5972 20.9963L20.8489 21.0209C23.1604 18.9347 24.493 15.8653 24.493 12.2245Z" fill="#4285F4"/>
<path d="M12.7448 23.9176C16.0489 23.9176 18.8228 22.8545 20.8489 21.0209L16.9872 18.0976C15.9538 18.8018 14.5668 19.2934 12.7448 19.2934C9.50856 19.2934 6.76188 17.2074 5.78276 14.324L5.63924 14.3359L1.86169 17.1927L1.81229 17.3269C3.82471 21.2334 7.95838 23.9176 12.7448 23.9176Z" fill="#34A853"/>
<path d="M5.78276 14.324C5.52441 13.5799 5.37489 12.7826 5.37489 11.9588C5.37489 11.1349 5.52441 10.3377 5.76917 9.59359L5.76232 9.43511L1.93744 6.5324L1.81229 6.59057C0.982878 8.21166 0.506958 10.0321 0.506958 11.9588C0.506958 13.8855 0.982878 15.7058 1.81229 17.3269L5.78276 14.324Z" fill="#FBBC05"/>
<path d="M12.7448 4.62403C15.0427 4.62403 16.5928 5.59401 17.4767 6.40461L20.9304 3.10928C18.8093 1.1826 16.0489 0 12.7448 0C7.95838 0 3.82471 2.68406 1.81229 6.59057L5.76917 9.59359C6.76188 6.7102 9.50856 4.62403 12.7448 4.62403Z" fill="#EB4335"/>
</svg>
